<svg width="0" height="0" class="hidden">
    <!-- Divers -->
    <symbol viewBox="0 0 20 20" fill="none" id="shop:check" xmlns="http://www.w3.org/2000/svg">
        <path fill="currentColor" fill-rule="evenodd" d="M16.704 4.153a.75.75 0 0 1 .143 1.052l-8 10.5a.75.75 0 0 1-1.127.075l-4.5-4.5a.75.75 0 0 1 1.06-1.06l3.894 3.893 7.48-9.817a.75.75 0 0 1 1.05-.143Z" clip-rule="evenodd" />
    </symbol>
    <symbol viewBox="0 0 24 24" fill="none" id="mdi:check-bold" xmlns="http://www.w3.org/2000/svg">
	    <path fill="currentColor" d="m9 20.42l-6.21-6.21l2.83-2.83L9 14.77l9.88-9.89l2.83 2.83z" />
    </symbol>
    <symbol viewBox="0 0 24 24" fill="none" id="close" xmlns="http://www.w3.org/2000/svg">
        <path fill="currentColor" d="M19 6.41L17.59 5L12 10.59L6.41 5L5 6.41L10.59 12L5 17.59L6.41 19L12 13.41L17.59 19L19 17.59L13.41 12z" />
    </symbol>
    <symbol viewBox="0 0 24 24" fill="none" id="hosting:servers" xmlns="http://www.w3.org/2000/svg">
        <path fill="currentColor" d="M4 1h16a1 1 0 0 1 1 1v4a1 1 0 0 1-1 1H4a1 1 0 0 1-1-1V2a1 1 0 0 1 1-1m0 8h16a1 1 0 0 1 1 1v4a1 1 0 0 1-1 1H4a1 1 0 0 1-1-1v-4a1 1 0 0 1 1-1m0 8h16a1 1 0 0 1 1 1v4a1 1 0 0 1-1 1H4a1 1 0 0 1-1-1v-4a1 1 0 0 1 1-1M9 5h1V3H9zm0 8h1v-2H9zm0 8h1v-2H9zM5 3v2h2V3zm0 8v2h2v-2zm0 8v2h2v-2z" />
    </symbol>
    <symbol viewBox="0 0 24 24" fill="none" id="hosting:web" xmlns="http://www.w3.org/2000/svg">
        <path fill="currentColor" d="M16.36 14c.08-.66.14-1.32.14-2s-.06-1.34-.14-2h3.38c.16.64.26 1.31.26 2s-.1 1.36-.26 2m-5.15 5.56c.6-1.11 1.06-2.31 1.38-3.56h2.95a8.03 8.03 0 0 1-4.33 3.56M14.34 14H9.66c-.1-.66-.16-1.32-.16-2s.06-1.35.16-2h4.68c.09.65.16 1.32.16 2s-.07 1.34-.16 2M12 19.96c-.83-1.2-1.5-2.53-1.91-3.96h3.82c-.41 1.43-1.08 2.76-1.91 3.96M8 8H5.08A7.92 7.92 0 0 1 9.4 4.44C8.8 5.55 8.35 6.75 8 8m-2.92 8H8c.35 1.25.8 2.45 1.4 3.56A8 8 0 0 1 5.08 16m-.82-2C4.1 13.36 4 12.69 4 12s.1-1.36.26-2h3.38c-.08.66-.14 1.32-.14 2s.06 1.34.14 2M12 4.03c.83 1.2 1.5 2.54 1.91 3.97h-3.82c.41-1.43 1.08-2.77 1.91-3.97M18.92 8h-2.95a15.7 15.7 0 0 0-1.38-3.56c1.84.63 3.37 1.9 4.33 3.56M12 2C6.47 2 2 6.5 2 12a10 10 0 0 0 10 10a10 10 0 0 0 10-10A10 10 0 0 0 12 2" />
    </symbol>
    <symbol viewBox="0 0 24 24" fill="none" id="hosting:domain" xmlns="http://www.w3.org/2000/svg">
          <path fill="currentColor" d="M7 9a2 2 0 0 1-2-2a2 2 0 0 1 2-2a2 2 0 0 1 2 2a2 2 0 0 1-2 2m13-6H4a1 1 0 0 0-1 1v6a1 1 0 0 0 1 1h16a1 1 0 0 0 1-1V4a1 1 0 0 0-1-1M7 19a2 2 0 0 1-2-2a2 2 0 0 1 2-2a2 2 0 0 1 2 2a2 2 0 0 1-2 2m13-6H4a1 1 0 0 0-1 1v6a1 1 0 0 0 1 1h16a1 1 0 0 0 1-1v-6a1 1 0 0 0-1-1" />  
    </symbol>
    <symbol viewBox="0 0 24 24" fill="none" id="check-circle" xmlns="http://www.w3.org/2000/svg">
        <path fill="currentColor" d="M12 2C6.5 2 2 6.5 2 12s4.5 10 10 10s10-4.5 10-10S17.5 2 12 2m-2 15l-5-5l1.41-1.41L10 14.17l7.59-7.59L19 8z" />
    </symbol>
    <symbol viewBox="0 0 24 24" fill="none" id="cross-circle" xmlns="http://www.w3.org/2000/svg">
        <path fill="currentColor" d="M12 2c5.53 0 10 4.47 10 10s-4.47 10-10 10S2 17.53 2 12S6.47 2 12 2m3.59 5L12 10.59L8.41 7L7 8.41L10.59 12L7 15.59L8.41 17L12 13.41L15.59 17L17 15.59L13.41 12L17 8.41z" />
    </symbol>
    <symbol viewBox="0 0 24 24" fill="none" id="arrow-down" xmlns="http://www.w3.org/2000/svg">
        <path fill="currentColor" d="M9 4h6v8h4.84L12 19.84L4.16 12H9z" />
    </symbol>
    <symbol viewBox="0 0 24 24" fill="none" id="mdi:cog" xmlns="http://www.w3.org/2000/svg">
        <path fill="currentColor" d="M12 8a4 4 0 0 1 4 4a4 4 0 0 1-4 4a4 4 0 0 1-4-4a4 4 0 0 1 4-4m0 2a2 2 0 0 0-2 2a2 2 0 0 0 2 2a2 2 0 0 0 2-2a2 2 0 0 0-2-2m-2 12c-.25 0-.46-.18-.5-.42l-.37-2.65c-.63-.25-1.17-.59-1.69-.99l-2.49 1.01c-.22.08-.49 0-.61-.22l-2-3.46a.493.493 0 0 1 .12-.64l2.11-1.66L4.5 12l.07-1l-2.11-1.63a.493.493 0 0 1-.12-.64l2-3.46c.12-.22.39-.31.61-.22l2.49 1c.52-.39 1.06-.73 1.69-.98l.37-2.65c.04-.24.25-.42.5-.42h4c.25 0 .46.18.5.42l.37 2.65c.63.25 1.17.59 1.69.98l2.49-1c.22-.09.49 0 .61.22l2 3.46c.13.22.07.49-.12.64L19.43 11l.07 1l-.07 1l2.11 1.63c.19.15.25.42.12.64l-2 3.46c-.12.22-.39.31-.61.22l-2.49-1c-.52.39-1.06.73-1.69.98l-.37 2.65c-.04.24-.25.42-.5.42zm1.25-18l-.37 2.61c-1.2.25-2.26.89-3.03 1.78L5.44 7.35l-.75 1.3L6.8 10.2a5.55 5.55 0 0 0 0 3.6l-2.12 1.56l.75 1.3l2.43-1.04c.77.88 1.82 1.52 3.01 1.76l.37 2.62h1.52l.37-2.61c1.19-.25 2.24-.89 3.01-1.77l2.43 1.04l.75-1.3l-2.12-1.55c.4-1.17.4-2.44 0-3.61l2.11-1.55l-.75-1.3l-2.41 1.04a5.42 5.42 0 0 0-3.03-1.77L12.75 4z" />
    </symbol>
    <symbol fill="none" viewBox="0 0 24 24" id="mdi:contactless" xmlns="http://www.w3.org/2000/svg">
        <path fill="currentColor" d="M16.79 23c-.42-.17-.72-.55-.79-1c-.05-.26 0-.44.4-1.16c1.5-2.7 2.27-5.75 2.23-8.84c.04-3-.69-5.93-2.13-8.56c-.21-.44-.4-.86-.56-1.31c.06-.38.25-.73.56-.94c.45-.24 1-.19 1.41.09c.28.36.52.72.72 1.14A21.4 21.4 0 0 1 20.8 9c.23 1.81.26 3.65.09 5.47c-.31 2.34-1 4.6-2.06 6.71c-.64 1.28-1 1.82-1.38 1.82zm-4.36-2.21c-.57-.16-.93-.74-.81-1.32c0-.12.31-.67.59-1.23c1.18-2.27 1.69-4.83 1.46-7.38c-.14-1.83-.67-3.61-1.54-5.22c-.63-1.26-.67-1.46-.3-2c.44-.49 1.17-.56 1.71-.14c.72 1.06 1.29 2.22 1.71 3.44c1.28 3.79 1.08 7.92-.56 11.56c-.84 1.89-1.43 2.5-2.26 2.24zm-4.5-2.23a1.31 1.31 0 0 1-.73-.86c0-.2 0-.46.45-1.26a8.99 8.99 0 0 0 0-8.68C7 6.5 7 6.24 7.53 5.76c.19-.22.47-.33.77-.29c.64 0 1 .31 1.54 1.44A10.5 10.5 0 0 1 11.12 12c.04 1.81-.4 3.61-1.27 5.2c-.54 1.05-.81 1.3-1.35 1.39c-.19.02-.39 0-.57-.09zm-4.21-2.13c-.33-.16-.59-.43-.72-.78c-.1-.35 0-.65.4-1.29c.5-.68.74-1.52.69-2.36c.07-.85-.16-1.69-.65-2.39A6 6 0 0 1 3 8.82c-.11-.63.31-1.23 1-1.35c.54-.1.92.13 1.42.89a6.62 6.62 0 0 1 0 7.27c-.51.77-1.09 1-1.69.8z" />
    </symbol>
    <!-- Fin -->

    <!-- Icônes pour les formulaires -->
    <symbol viewBox="0 0 20 20" fill="none" id="form:carret" xmlns="http://www.w3.org/2000/svg">
        <path fill="currentColor" fill-rule="evenodd" d="M5.22 8.22a.75.75 0 0 1 1.06 0L10 11.94l3.72-3.72a.75.75 0 1 1 1.06 1.06l-4.25 4.25a.75.75 0 0 1-1.06 0L5.22 9.28a.75.75 0 0 1 0-1.06Z" clip-rule="evenodd" />
    </symbol>
    <!-- Fin -->

    <!-- Icônes pour le menu contextuel -->
    <symbol viewBox="0 0 20 20" fill="none" id="copy" xmlns="http://www.w3.org/2000/svg">
        <path fill="currentColor" d="M19 21H8V7h11m0-2H8a2 2 0 0 0-2 2v14a2 2 0 0 0 2 2h11a2 2 0 0 0 2-2V7a2 2 0 0 0-2-2m-3-4H4a2 2 0 0 0-2 2v14h2V3h12z" />
    </symbol>
    <!-- Fin -->

    <!-- Icônes des BBCodes (base) -->
    
    <!-- Fin -->

    <!-- Icônes de l'éditeur de texte -->
    <symbol viewBox="0 0 24 24" fill="none" id="editor:help" xmlns="http://www.w3.org/2000/svg">
        <path fill="currentColor" d="M11 18h2v-2h-2zm1-16A10 10 0 0 0 2 12a10 10 0 0 0 10 10a10 10 0 0 0 10-10A10 10 0 0 0 12 2m0 18c-4.41 0-8-3.59-8-8s3.59-8 8-8s8 3.59 8 8s-3.59 8-8 8m0-14a4 4 0 0 0-4 4h2a2 2 0 0 1 2-2a2 2 0 0 1 2 2c0 2-3 1.75-3 5h2c0-2.25 3-2.5 3-5a4 4 0 0 0-4-4" />
    </symbol>
    <symbol viewBox="0 0 24 24" fill="none" id="editor:font-size" xmlns="http://www.w3.org/2000/svg">
        <path fill="currentColor" d="M2 4v3h5v12h3V7h5V4zm19 5h-9v3h3v7h3v-7h3z" />
    </symbol>
    <symbol viewBox="0 0 24 24" fill="none" id="editor:trash" xmlns="http://www.w3.org/2000/svg">
        <path fill="currentColor" d="M9 3v1H4v2h1v13a2 2 0 0 0 2 2h10a2 2 0 0 0 2-2V6h1V4h-5V3zM7 6h10v13H7zm2 2v9h2V8zm4 0v9h2V8z" />
    </symbol>
    <symbol viewBox="0 0 24 24" fill="none" id="editor:bold" xmlns="http://www.w3.org/2000/svg">
        <path fill="currentColor" d="M13.5 15.5H10v-3h3.5A1.5 1.5 0 0 1 15 14a1.5 1.5 0 0 1-1.5 1.5m-3.5-9h3A1.5 1.5 0 0 1 14.5 8A1.5 1.5 0 0 1 13 9.5h-3m5.6 1.29c.97-.68 1.65-1.79 1.65-2.79c0-2.26-1.75-4-4-4H7v14h7.04c2.1 0 3.71-1.7 3.71-3.79c0-1.52-.86-2.82-2.15-3.42" />
    </symbol>
    <symbol viewBox="0 0 24 24" fill="none" id="editor:italic" xmlns="http://www.w3.org/2000/svg">
	    <path fill="currentColor" d="M10 4v3h2.21l-3.42 8H6v3h8v-3h-2.21l3.42-8H18V4z" />
    </symbol>
    <symbol viewBox="0 0 24 24" fill="none" id="editor:underline" xmlns="http://www.w3.org/2000/svg">
        <path fill="currentColor" d="M5 21h14v-2H5zm7-4a6 6 0 0 0 6-6V3h-2.5v8a3.5 3.5 0 0 1-3.5 3.5A3.5 3.5 0 0 1 8.5 11V3H6v8a6 6 0 0 0 6 6" />
    </symbol>
    <symbol viewBox="0 0 24 24" fill="none" id="editor:text-left" xmlns="http://www.w3.org/2000/svg">
        <path fill="currentColor" d="M3 3h18v2H3zm0 4h12v2H3zm0 4h18v2H3zm0 4h12v2H3zm0 4h18v2H3z" />
    </symbol>
    <symbol viewBox="0 0 24 24" fill="none" id="editor:text-center" xmlns="http://www.w3.org/2000/svg">
        <path fill="currentColor" d="M3 3h18v2H3zm4 4h10v2H7zm-4 4h18v2H3zm4 4h10v2H7zm-4 4h18v2H3z" />
    </symbol>

    <symbol viewBox="0 0 24 24" fill="none" id="editor:text-right" xmlns="http://www.w3.org/2000/svg">
        <path fill="currentColor" d="M3 3h18v2H3zm6 4h12v2H9zm-6 4h18v2H3zm6 4h12v2H9zm-6 4h18v2H3z" />
    </symbol>
    <symbol viewBox="0 0 24 24" fill="none" id="editor:text-justify" xmlns="http://www.w3.org/2000/svg">
        <path fill="currentColor" d="M3 3h18v2H3zm0 4h18v2H3zm0 4h18v2H3zm0 4h18v2H3zm0 4h18v2H3z" />
    </symbol>
    <symbol viewBox="0 0 24 24" fill="none" id="editor:text-color" xmlns="http://www.w3.org/2000/svg">
        <path fill="currentColor" d="M12 19.58c-1.6 0-3.11-.62-4.24-1.75A5.95 5.95 0 0 1 6 13.58c0-1.58.62-3.11 1.76-4.24L12 5.1m5.66 2.83L12 2.27L6.34 7.93c-3.12 3.12-3.12 8.19 0 11.31A7.98 7.98 0 0 0 12 21.58c2.05 0 4.1-.78 5.66-2.34c3.12-3.12 3.12-8.19 0-11.31" />
    </symbol>
    <symbol viewBox="0 0 24 24" fill="none" id="editor:emojis" xmlns="http://www.w3.org/2000/svg">
        <path fill="currentColor" d="M20 12a8 8 0 0 0-8-8a8 8 0 0 0-8 8a8 8 0 0 0 8 8a8 8 0 0 0 8-8m2 0a10 10 0 0 1-10 10A10 10 0 0 1 2 12A10 10 0 0 1 12 2a10 10 0 0 1 10 10M10 9.5c0 .8-.7 1.5-1.5 1.5S7 10.3 7 9.5S7.7 8 8.5 8s1.5.7 1.5 1.5m7 0c0 .8-.7 1.5-1.5 1.5S14 10.3 14 9.5S14.7 8 15.5 8s1.5.7 1.5 1.5m-5 7.73c-1.75 0-3.29-.73-4.19-1.81L9.23 14c.45.72 1.52 1.23 2.77 1.23s2.32-.51 2.77-1.23l1.42 1.42c-.9 1.08-2.44 1.81-4.19 1.81" />
    </symbol>
    <symbol viewBox="0 0 24 24" fill="none" id="editor:text-link" xmlns="http://www.w3.org/2000/svg">
        <path fill="currentColor" d="M10.59 13.41c.41.39.41 1.03 0 1.42c-.39.39-1.03.39-1.42 0a5.003 5.003 0 0 1 0-7.07l3.54-3.54a5.003 5.003 0 0 1 7.07 0a5.003 5.003 0 0 1 0 7.07l-1.49 1.49c.01-.82-.12-1.64-.4-2.42l.47-.48a2.98 2.98 0 0 0 0-4.24a2.98 2.98 0 0 0-4.24 0l-3.53 3.53a2.98 2.98 0 0 0 0 4.24m2.82-4.24c.39-.39 1.03-.39 1.42 0a5.003 5.003 0 0 1 0 7.07l-3.54 3.54a5.003 5.003 0 0 1-7.07 0a5.003 5.003 0 0 1 0-7.07l1.49-1.49c-.01.82.12 1.64.4 2.43l-.47.47a2.98 2.98 0 0 0 0 4.24a2.98 2.98 0 0 0 4.24 0l3.53-3.53a2.98 2.98 0 0 0 0-4.24a.973.973 0 0 1 0-1.42" />
    </symbol>
    <symbol viewBox="0 0 24 24" fill="none" id="editor:more" xmlns="http://www.w3.org/2000/svg">
        <path fill="currentColor" d="M16 12a2 2 0 0 1 2-2a2 2 0 0 1 2 2a2 2 0 0 1-2 2a2 2 0 0 1-2-2m-6 0a2 2 0 0 1 2-2a2 2 0 0 1 2 2a2 2 0 0 1-2 2a2 2 0 0 1-2-2m-6 0a2 2 0 0 1 2-2a2 2 0 0 1 2 2a2 2 0 0 1-2 2a2 2 0 0 1-2-2" />
    </symbol>
    <!-- Fin -->
</svg>